<svg width="824" height="784" viewBox="0 0 824 784" fill="none" xmlns="http://www.w3.org/2000/svg">
<path d="M61 82.637C165.403 312.51 205.932 545.959 230 772.637L612 783.637C640.404 513.909 696.049 309.15 824 82.637C458.192 -19.8414 300.191 -6.15631 61 82.637Z" fill="#4D2F64"/>
<path d="M0 71.8185C104.403 301.692 144.932 535.14 169 761.819L551 772.819C579.404 503.091 635.049 298.332 763 71.8185C397.192 -30.66 239.191 -16.9749 0 71.8185Z" fill="#A636FA"/>
<path d="M98 281.819L83 336.819L45 244.819L98 281.819Z" fill="#651C9B"/>
<path d="M96 381.819C87.5859 326.03 42 247.819 42 247.819L82 257.819C82 257.819 119.792 335.88 129 389.819C138.004 442.557 129 526.819 129 526.819L90 504.819C90 504.819 103.172 429.372 96 381.819Z" fill="#8433C1"/>
<path d="M510 359.818C393.634 243.044 331.634 231.513 230 359.818L213 371.819C332 213.319 398.172 238.045 522 366.319L510 359.818Z" fill="#3B0E5D"/>
<path d="M186 319.819C124.461 331.041 45 243.819 45 243.819C45 243.819 109.603 126.474 176 133.819C235.027 140.348 281 243.819 281 243.819C281 243.819 232.74 311.295 186 319.819Z" fill="#9B3CE3"/>
<path d="M186 319.819C124.461 331.041 45 243.819 45 243.819C45 243.819 109.603 126.474 176 133.819C235.027 140.348 281 243.819 281 243.819C281 243.819 232.74 311.295 186 319.819Z" fill="#9B3CE3"/>
<mask id="mask0_103_4" style="mask-type:alpha" maskUnits="userSpaceOnUse" x="45" y="133" width="236" height="188">
<path d="M186 319.819C124.461 331.041 45 243.819 45 243.819C45 243.819 109.603 126.474 176 133.819C235.027 140.348 281 243.819 281 243.819C281 243.819 232.74 311.295 186 319.819Z" fill="#9B3CE3"/>
</mask>
<g mask="url(#mask0_103_4)">
<path d="M184 97.8185C230.514 208.102 253.029 268.393 168 321.819L276 359.819L363 204.819L184 97.8185Z" fill="#8D30D2"/>
</g>
<path d="M278 241.319C208.072 132.16 155.744 151.501 40 245.819C40 245.819 123.268 255.335 178 254.319C217.92 253.577 278 241.319 278 241.319Z" fill="#622C8B"/>
<path d="M268 237.819C213.804 163.37 162.789 181.016 63 237.819C50.7651 237.042 44.12 233.502 32.5 223.819C47.2632 231.881 55.4376 233.396 68.5 229.819C57.2663 227.857 51.7046 222.815 43 207.319C56.6515 220.239 63.8357 224.851 75 223.819C67.193 219.574 63.3033 211.431 56.5 195.319C67.6195 210.391 73.9318 216.449 85.5 217.819C80.0738 208.015 76.3395 201.871 68.5 189.819C79.3909 202.759 86.1408 207.394 99 212.319C87.3401 201.104 82.9179 194.523 82 181.819C89.3498 194.641 96.674 199.728 112 207.319C98.3305 187.037 96.7184 179.636 99 169.819C105.817 188.603 111.312 196.062 125.5 201.319C116.094 190.164 113.23 181.707 109 165.819C119.179 181.371 124.805 190.211 142 195.319C127.207 176.768 129.596 171.137 131 159.819C134.669 172.171 131.238 179.553 160 189.819C149.367 168.989 151.501 154.25 160 149.819C160.396 162.839 159.957 180.543 175.5 184.319C168.692 161.947 175.5 155.819 182.5 152.819C175.5 165.819 184.93 181.147 199 184.319C194.944 171.298 197.288 164.569 203.5 152.819C202.993 166.834 201.796 174.607 214 189.819C217.897 192.76 225.963 172.023 226.5 159.819C227.671 133.226 228.024 165.651 226.5 195.319C231.28 192.887 234.419 189.479 241.5 176.819C238.777 192.809 238.885 198.504 241.5 203.819C247.347 200.564 251.515 195.457 259.5 184.319L252 209.819C257.498 216.551 261.951 213.292 274 201.319L264.5 221.319C274.473 223.999 280.053 220.69 290 212.319L274 229.819L298.5 232.819L268 237.819Z" fill="#3B0E5E"/>
<path d="M170 185.819C111.11 201.049 62 233.819 62 233.819L42 245.819C92.4209 286.356 131.011 289.584 198 298.819C160.242 290.795 140.588 285.221 109 272.819C160.595 280.302 173.392 277.329 198 272.819C140.661 268.455 111.629 261.454 62 245.819L281 240.819C281 240.819 228 170.819 170 185.819Z" fill="#3B0E5D"/>
<path d="M93 229.819C90.3491 232.126 87.7281 235.709 93 238.819L259 234.819C254.74 225.569 245.74 215.719 235 207.819C202.5 174.819 135.5 192.819 93 229.819Z" fill="#F9ECEC"/>
<path d="M143.5 239.819C138.94 214.354 142.419 203.389 165 192.819C187.29 185.996 199.781 183.826 222 195.319C235.355 212.882 236.96 222.609 233 239.819H143.5Z" fill="#3B0E5D"/>
<path d="M188 190.819C183.025 211.94 177.604 224.966 188 234.319H152C159.515 207.662 167.67 198.54 188 190.819Z" fill="#B94598"/>
<path d="M166 213.819C166 219.065 163.761 223.319 161 223.319C158.239 223.319 156 219.065 156 213.819C156 208.572 158.239 204.319 161 204.319C163.761 204.319 166 208.572 166 213.819Z" fill="white"/>
<ellipse cx="212" cy="222.319" rx="6" ry="4.5" fill="white"/>
<ellipse cx="212" cy="206.819" rx="6" ry="7" fill="white"/>
<ellipse cx="369.5" cy="437.319" rx="144.5" ry="89.5" fill="#7120AC"/>
<ellipse cx="366" cy="503.319" rx="169" ry="98.5" fill="#8D30D2"/>
<path d="M294 355.819C191.223 420.449 156.489 449.572 100 499.819L115 515.819C195.018 466.702 243.471 443.445 339 412.819C339 412.819 371.039 361.956 350 345.819C332.373 332.298 294 355.819 294 355.819Z" fill="#85336D"/>
<mask id="mask1_103_4" style="mask-type:alpha" maskUnits="userSpaceOnUse" x="100" y="341" width="258" height="175">
<path d="M294 355.819C191.223 420.449 156.489 449.572 100 499.819L115 515.819C195.018 466.702 243.471 443.445 339 412.819C339 412.819 371.039 361.956 350 345.819C332.373 332.298 294 355.819 294 355.819Z" fill="#85336D"/>
</mask>
<g mask="url(#mask1_103_4)">
<circle cx="328" cy="378.819" r="50" fill="#CA8484"/>
</g>
<circle cx="604.5" cy="321.319" r="5.5" fill="#57108C"/>
<path d="M636.158 377.149C644.572 321.361 690.158 243.149 690.158 243.149L650.158 253.149C650.158 253.149 612.366 331.21 603.158 385.149C594.154 437.888 603.158 522.149 603.158 522.149L642.158 500.149C642.158 500.149 628.986 424.703 636.158 377.149Z" fill="#8433C1"/>
<path d="M634.158 277.149L649.158 332.149L687.158 240.149L634.158 277.149Z" fill="#651C9B"/>
<path d="M546.158 315.149C607.697 326.372 687.158 239.149 687.158 239.149C687.158 239.149 622.555 121.805 556.158 129.149C497.131 135.679 451.158 239.149 451.158 239.149C451.158 239.149 499.418 306.626 546.158 315.149Z" fill="#9B3CE3"/>
<path d="M546.158 315.149C607.697 326.372 687.158 239.149 687.158 239.149C687.158 239.149 622.555 121.805 556.158 129.149C497.131 135.679 451.158 239.149 451.158 239.149C451.158 239.149 499.418 306.626 546.158 315.149Z" fill="#9B3CE3"/>
<mask id="mask2_103_4" style="mask-type:alpha" maskUnits="userSpaceOnUse" x="451" y="128" width="237" height="189">
<path d="M546.158 315.149C607.697 326.372 687.158 239.149 687.158 239.149C687.158 239.149 622.555 121.805 556.158 129.149C497.131 135.679 451.158 239.149 451.158 239.149C451.158 239.149 499.418 306.626 546.158 315.149Z" fill="#9B3CE3"/>
</mask>
<g mask="url(#mask2_103_4)">
<path d="M548.158 93.1495C501.644 203.432 479.129 263.724 564.158 317.149L456.158 355.149L369.158 200.149L548.158 93.1495Z" fill="#8D30D2"/>
</g>
<path d="M454.158 236.649C524.086 127.491 576.414 146.832 692.158 241.149C692.158 241.149 608.89 250.666 554.158 249.649C514.238 248.908 454.158 236.649 454.158 236.649Z" fill="#622C8B"/>
<path d="M464.158 233.15C518.354 158.701 569.369 176.347 669.158 233.15C681.393 232.373 688.038 228.833 699.658 219.149C684.895 227.212 676.72 228.727 663.658 225.149C674.892 223.188 680.453 218.146 689.158 202.649C675.507 215.57 668.322 220.181 657.158 219.149C664.965 214.905 668.855 206.762 675.658 190.649C664.538 205.722 658.226 211.78 646.658 213.149C652.084 203.346 655.818 197.202 663.658 185.149C652.767 198.09 646.017 202.725 633.158 207.649C644.818 196.435 649.24 189.854 650.158 177.149C642.808 189.972 635.484 195.059 620.158 202.649C633.827 182.368 635.44 174.967 633.158 165.149C626.341 183.934 620.846 191.393 606.658 196.649C616.064 185.495 618.928 177.038 623.158 161.149C612.979 176.702 607.353 185.542 590.158 190.649C604.951 172.099 602.562 166.468 601.158 155.149C597.489 167.502 600.92 174.884 572.158 185.149C582.791 164.32 580.657 149.581 572.158 145.149C571.762 158.17 572.201 175.873 556.658 179.649C563.466 157.278 556.658 151.149 549.658 148.149C556.658 161.149 547.228 176.477 533.158 179.649C537.214 166.629 534.87 159.9 528.658 148.149C529.165 162.165 530.362 169.938 518.158 185.149C514.261 188.091 506.195 167.354 505.658 155.149C504.487 128.557 504.134 160.982 505.658 190.649C500.878 188.218 497.739 184.81 490.658 172.149C493.381 188.14 493.273 193.835 490.658 199.149C484.811 195.895 480.643 190.788 472.658 179.649L480.158 205.149C474.66 211.882 470.207 208.623 458.158 196.649L467.658 216.649C457.685 219.33 452.105 216.021 442.158 207.649L458.158 225.149L433.658 228.149L464.158 233.15Z" fill="#3B0E5E"/>
<path d="M562.158 181.149C621.048 196.38 670.158 229.15 670.158 229.15L690.158 241.15C639.737 281.687 601.147 284.915 534.158 294.149C571.916 286.126 591.57 280.551 623.158 268.149C571.563 275.633 558.766 272.66 534.158 268.149C591.497 263.786 620.529 256.785 670.158 241.15L451.158 236.15C451.158 236.15 504.158 166.149 562.158 181.149Z" fill="#3B0E5D"/>
<path d="M639.158 225.149C641.809 227.457 644.43 231.04 639.158 234.149L473.158 230.149C477.418 220.9 486.418 211.05 497.158 203.149C529.658 170.149 596.658 188.149 639.158 225.149Z" fill="#F9ECEC"/>
<path d="M588.658 235.149C593.218 209.685 589.739 198.72 567.158 188.149C544.868 181.327 532.377 179.157 510.158 190.649C496.803 208.213 495.198 217.94 499.158 235.149H588.658Z" fill="#3B0E5D"/>
<path d="M544.158 186.149C549.133 207.271 554.554 220.297 544.158 229.649H580.158C572.643 202.993 564.488 193.871 544.158 186.149Z" fill="#B94598"/>
<path d="M566.158 209.149C566.158 214.396 568.397 218.649 571.158 218.649C573.919 218.649 576.158 214.396 576.158 209.149C576.158 203.903 573.919 199.649 571.158 199.649C568.397 199.649 566.158 203.903 566.158 209.149Z" fill="white"/>
<ellipse rx="6" ry="4.5" transform="matrix(-1 0 0 1 520.158 217.649)" fill="white"/>
<ellipse rx="6" ry="7" transform="matrix(-1 0 0 1 520.158 202.149)" fill="white"/>
<ellipse cx="617" cy="501.319" rx="27" ry="25.5" fill="#57108C"/>
<path d="M438.158 351.149C540.935 415.779 575.669 444.903 632.158 495.149L617.158 511.149C537.14 462.033 488.687 438.776 393.158 408.149C393.158 408.149 361.119 357.287 382.158 341.149C399.785 327.629 438.158 351.149 438.158 351.149Z" fill="#85336D"/>
<mask id="mask3_103_4" style="mask-type:alpha" maskUnits="userSpaceOnUse" x="375" y="336" width="258" height="176">
<path d="M438.158 351.149C540.935 415.779 575.669 444.903 632.158 495.149L617.158 511.149C537.14 462.033 488.687 438.776 393.158 408.149C393.158 408.149 361.119 357.287 382.158 341.149C399.785 327.629 438.158 351.149 438.158 351.149Z" fill="#85336D"/>
</mask>
<g mask="url(#mask3_103_4)">
<circle r="50" transform="matrix(-1 0 0 1 404.158 374.149)" fill="#CA8484"/>
</g>
<ellipse cx="366" cy="549.819" rx="169" ry="126" fill="#9B3CE3"/>
<path d="M308 609.819C357.24 619.013 284 483.819 284 483.819C284 483.819 297.733 516.233 284 522.819C274.178 527.529 267.889 516.099 257 515.819C215.25 514.744 266.945 602.152 308 609.819Z" fill="#470909"/>
<path d="M409.024 609.819C359.784 619.013 433.024 483.819 433.024 483.819C433.024 483.819 419.291 516.233 433.024 522.819C442.845 527.529 449.134 516.099 460.024 515.819C501.774 514.744 450.078 602.152 409.024 609.819Z" fill="#470909"/>
<path d="M314 77.8202L56 150.82L40 144.82C40 144.82 210.148 68.1691 314 67.8202C452.3 67.3554 654 166.82 654 166.82L634 166.82L314 77.8202Z" fill="#3B0E5D"/>
</svg>
